HIERARCHY
ROOT hip
{
	OFFSET 0.000000 0.000000 0.000000 
	CHANNELS 6 Xposition Yposition Zposition Xrotation Zrotation Yrotation
	JOINT abdomen
	{
		OFFSET 0.000000 3.402643 0.000000 
		CHANNELS 3 Xrotation Zrotation Yrotation
		JOINT chest
		{
			OFFSET 0.000000 8.438565 -0.680529 
			CHANNELS 3 Xrotation Zrotation Yrotation
			JOINT neck
			{
				OFFSET 0.000000 10.207942 -0.272212 
				CHANNELS 3 Xrotation Zrotation Yrotation
				JOINT head
				{
					OFFSET 0.000000 3.130431 0.000000 
					CHANNELS 3 Xrotation Zrotation Yrotation
					End Site
					{
						OFFSET 0.000000 3.130435 0.000000 
					}
				}
			}
			JOINT lCollar
			{
				OFFSET 3.470700 6.669187 -0.816635 
				CHANNELS 3 Yrotation Zrotation Xrotation
				JOINT lShldr
				{
					OFFSET 3.198488 0.000000 0.000000 
					CHANNELS 3 Zrotation Yrotation Xrotation
					JOINT lForeArm
					{
						OFFSET 10.139888 0.000000 0.000000 
						CHANNELS 3 Yrotation Zrotation Xrotation
						JOINT lHand
						{
							OFFSET 8.370511 0.000000 0.000000 
							CHANNELS 3 Zrotation Yrotation Xrotation
							End Site
							{
								OFFSET 4.083176 0.000000 0.000000 
							}
						}
					}
				}
			}
			JOINT rCollar
			{
				OFFSET -3.470700 6.669187 -0.816635 
				CHANNELS 3 Yrotation Zrotation Xrotation
				JOINT rShldr
				{
					OFFSET -3.198488 0.000000 0.000000 
					CHANNELS 3 Zrotation Yrotation Xrotation
					JOINT rForeArm
					{
						OFFSET -10.139888 0.000000 0.000000 
						CHANNELS 3 Yrotation Zrotation Xrotation
						JOINT rHand
						{
							OFFSET -8.370511 0.000000 0.000000 
							CHANNELS 3 Zrotation Yrotation Xrotation
							End Site
							{
								OFFSET -4.083176 0.000000 0.000000 
							}
						}
					}
				}
			}
		}
	}
	JOINT lThigh
	{
		OFFSET 5.308129 -1.633274 1.361059 
		CHANNELS 3 Xrotation Zrotation Yrotation
		JOINT lShin
		{
			OFFSET -2.041588 -20.007561 0.000000 
			CHANNELS 3 Xrotation Zrotation Yrotation
			JOINT lFoot
			{
				OFFSET 0.000000 -19.190928 -1.224953 
				CHANNELS 3 Xrotation Yrotation Zrotation
				End Site
				{
					OFFSET 0.000000 -2.449906 4.627600 
				}
			}
		}
	}
	JOINT rThigh
	{
		OFFSET -5.308129 -1.633274 1.361059 
		CHANNELS 3 Xrotation Zrotation Yrotation
		JOINT rShin
		{
			OFFSET 2.041588 -20.007561 0.000000 
			CHANNELS 3 Xrotation Zrotation Yrotation
			JOINT rFoot
			{
				OFFSET 0.000000 -19.190928 -1.224953 
				CHANNELS 3 Xrotation Yrotation Zrotation
				End Site
				{
					OFFSET 0.000000 -2.449906 4.627600 
				}
			}
		}
	}
}
MOTION
Frames: 14
Frame Time: 0.033333
-0.606761 40.485268 0.270722 1.079654 -5.750939 84.608162 0.000000 0.000000 0.000000 6.693541 -1.998018 5.829819 16.130308 -5.754457 -0.488304 -24.070385 1.775815 54.281590 -19.680878 23.203476 25.000000 -91.290909 9.452941 -8.253110 -77.422623 -15.740854 31.806240 5.577480 -14.434471 -62.478363 0.488550 -12.992602 24.730547 70.333282 -3.478392 81.145149 76.794830 -84.002510 36.777462 18.400780 -1.717927 -80.610252 -8.305161 5.578350 18.683374 123.352577 13.275128 0.200436 3.781498 15.552573 9.372702 -16.905344 1.922261 2.295610 57.037373 4.331153 5.250114 -23.927753 -9.427099 23.389729 
-0.906233 40.303513 0.511041 -1.286588 -6.101988 82.069603 0.000000 0.000000 0.000000 7.559324 0.793823 6.414061 15.145811 -8.039387 -0.639362 -23.890917 3.362159 56.112953 -14.525161 22.178434 25.000000 -91.069565 19.534571 -9.083749 -70.582420 -19.497854 33.188511 4.646095 -15.609540 -61.843742 5.260049 -14.121914 25.000000 70.048271 7.434556 78.001457 -17.242397 -95.526146 -58.819061 20.968016 -6.023854 -80.481857 -17.196207 9.979287 19.391899 128.392212 13.589459 0.452141 1.972033 13.614487 3.394508 -12.771403 5.926483 3.322039 56.847145 2.163440 4.742066 -26.059135 -7.768700 26.996019 
-0.670139 41.335968 0.435068 -1.597114 -4.675925 79.006752 0.000000 0.000000 0.000000 9.437622 1.666599 6.546686 14.073848 -11.327041 -0.877411 -22.765491 5.283632 58.573994 -7.049856 18.570391 25.000000 -87.152832 29.237957 -12.754526 -65.489235 -27.417633 35.552269 5.372670 -17.354401 -61.993126 11.252544 -15.861825 25.000000 69.145088 15.623636 75.603600 10.782328 -96.837646 -35.793198 19.806337 -6.230348 -80.555298 -19.879318 10.347760 19.219044 121.161133 13.108604 0.091196 -0.702647 6.807520 4.169200 -1.962312 6.326822 3.083557 48.579784 -1.319121 3.229093 -25.955050 -3.630322 28.231964 
-0.098269 42.950974 0.021748 -0.284158 -4.697208 77.581779 0.000000 0.000000 0.000000 8.723473 1.438253 6.519666 13.394756 -13.910169 -1.068833 -21.345619 6.660733 59.409950 -2.382346 15.676399 25.000000 -84.447182 36.566929 -16.667257 -62.064720 -34.750908 37.720467 5.709474 -19.848339 -62.214016 13.081610 -18.382486 25.000000 68.855766 21.346443 74.126831 12.345594 -98.325485 -32.111118 11.461648 -5.576311 -81.004135 -20.953514 6.628422 17.867085 105.167999 11.783932 -0.572109 -3.738451 4.472903 13.872344 8.920898 2.752767 1.779907 36.153053 -1.793797 1.906507 -19.515223 2.598401 32.294338 
0.422635 44.612980 -0.432792 0.963399 -6.590873 77.301132 0.000000 0.000000 0.000000 5.998363 1.573374 6.649882 12.547489 -15.936087 -1.217365 -19.607088 7.196524 59.662262 -0.462113 13.658598 24.795174 -83.388779 41.349293 -19.673628 -61.568630 -38.375984 41.140476 4.156721 -22.530430 -61.554852 12.940368 -21.373249 25.000000 69.208168 23.422470 73.787552 -1.687953 -98.538338 -45.123096 -1.798507 -6.590848 -82.544136 -21.315617 2.645572 16.604403 83.359047 11.171425 -0.711769 -3.285829 2.254859 12.961617 16.139000 -1.562233 0.440435 25.181240 1.376558 1.533866 -8.440743 5.058921 30.974262 
0.719233 45.803486 -0.503826 -0.207967 -9.560486 75.551636 0.000000 0.000000 0.000000 3.033395 3.617984 7.203549 10.567834 -17.506079 -1.335294 -17.621870 8.054816 61.569660 1.661026 12.863558 24.233110 -83.319237 44.462662 -21.651949 -62.708828 -40.557804 42.254990 3.294108 -24.423834 -61.178207 14.474716 -23.930737 25.000000 70.661110 24.293198 74.171814 -11.186356 -98.047508 -58.545166 -0.263525 -2.290396 -82.865204 -19.785486 3.633354 17.063503 57.974503 8.899240 -0.566446 -6.300069 1.822782 13.942102 17.097769 -1.835666 0.350374 24.793491 2.427240 1.743511 2.774977 4.911152 34.041973 
0.982562 46.392956 -0.308002 -2.953377 -10.864801 72.597397 0.000000 0.000000 0.000000 2.309504 6.440121 7.886692 8.723404 -18.201965 -1.386461 -17.057482 9.261036 65.433464 4.646509 12.453107 23.490978 -83.161201 45.209820 -22.359760 -64.788765 -41.111496 40.796558 2.807647 -24.492683 -61.001862 16.959415 -24.133772 25.000000 71.345825 22.713930 74.825317 -9.953766 -99.432533 -49.469486 0.188512 -7.370193 -82.111107 -13.093455 7.517006 18.967922 29.715639 4.191458 -0.169409 -6.004754 -3.936854 14.334904 16.066092 1.044621 1.207758 35.369953 -1.169415 1.957553 6.823878 -0.600918 30.386385 
1.556008 46.302750 -0.411273 -2.787355 -5.725685 74.789604 0.000000 0.000000 0.000000 6.247185 4.184079 7.244922 9.629776 -17.055803 -1.297441 -19.742762 10.276536 63.341595 0.084973 11.306076 24.658087 -82.059044 42.704922 -21.644106 -71.104652 -42.003983 33.478855 11.667050 -22.731018 -65.260262 13.586556 -20.981594 25.000000 70.295021 16.730463 75.819641 -20.728622 -96.813034 -59.551586 3.867344 -3.724710 -82.068466 -2.722816 3.432747 18.192732 15.448517 2.026808 0.242142 -10.474447 -4.224925 5.743404 18.510248 -0.263545 0.809735 49.632183 -1.901568 3.180104 12.778410 -9.442711 22.558632 
1.520089 45.142963 -0.467323 -2.566536 -4.507212 77.037140 0.000000 0.000000 0.000000 6.490596 2.503403 6.837607 11.850966 -14.099431 -1.083685 -20.392267 8.560959 61.035923 -4.748357 13.128312 25.000000 -84.156746 35.252125 -16.423435 -77.267441 -32.865307 28.141735 9.442964 -16.489492 -63.725727 9.986722 -17.614504 25.000000 71.953972 7.288842 78.844795 68.724487 -80.406631 14.551942 1.604574 -1.583657 -82.345490 -2.871062 2.265565 17.809258 17.909721 1.850634 0.029796 -10.047130 -1.714714 3.785471 13.412420 -0.976519 0.630389 70.123756 -1.308552 5.217837 13.688415 -14.586528 22.382847 
1.244282 43.372444 -0.530925 -2.663490 -4.223964 78.916489 0.000000 0.000000 0.000000 6.535128 1.387414 6.584893 13.174365 -11.092308 -0.865292 -21.472145 6.024400 59.579304 -8.733112 14.533227 25.000000 -84.004524 25.108101 -13.926991 -81.761589 -25.837376 26.133503 8.614390 -13.667261 -63.436275 7.215072 -15.301546 25.000000 73.059357 -0.648093 81.525391 33.705265 -73.975014 -11.642042 6.743127 0.771804 -81.864754 -5.787197 1.978846 17.638319 29.087683 4.021612 -0.179898 -5.299798 -1.904107 5.459273 5.611701 -1.346336 0.638489 90.812820 -0.634481 6.990938 13.375813 -15.403220 27.623978 
0.787978 41.434406 -0.953769 -0.322990 -3.837830 80.500084 0.000000 0.000000 0.000000 6.896366 -1.318519 5.963405 13.580798 -9.233735 -0.721809 -22.518930 5.607705 58.899822 -11.865138 14.958327 25.000000 -81.482048 12.261182 -13.269538 -87.218956 -21.226805 22.764381 8.672442 -11.969899 -63.643566 6.080806 -14.658688 25.000000 73.832619 -7.458797 84.048683 21.082373 -66.919563 -15.003291 13.221961 1.287472 -81.105545 -10.807687 -2.090160 16.138660 44.525551 8.172812 -0.097056 -11.665286 5.005559 18.599123 -3.562051 -5.611087 -0.423163 109.098778 -0.888418 7.957117 9.875035 -17.712420 22.815607 
0.223766 40.241276 -1.127775 1.175391 -4.432665 80.953583 0.000000 0.000000 0.000000 6.688583 -2.948580 5.621126 13.839920 -8.514922 -0.676646 -24.036758 5.970770 58.044014 -11.989302 15.348733 25.000000 -76.598137 -2.212338 -13.940113 -92.581985 -16.830175 20.187180 8.921130 -11.150458 -64.047493 6.660310 -15.251168 25.000000 74.678253 -13.781033 86.842735 18.101099 -56.226883 -11.589807 11.885683 3.397948 -81.159714 -12.104122 -3.691280 15.608253 52.691376 8.819477 -0.346648 -18.263115 7.320488 18.230993 -15.025843 -6.961211 -0.453054 120.924377 -2.156451 8.087089 8.254202 -19.551155 18.820375 
-0.141006 40.321724 -1.009146 0.872395 -4.950601 82.111649 0.000000 0.000000 0.000000 6.532769 -3.056236 5.597428 14.581860 -7.743455 -0.625887 -24.499424 5.364913 57.098305 -14.349852 15.840738 25.000000 -71.097557 -14.941724 -15.252174 -97.778557 -8.702194 19.842802 10.451227 -11.006879 -64.886971 5.884890 -14.535677 25.000000 72.369324 -22.148735 89.509407 22.845163 -50.014408 -9.995924 17.539146 -2.317334 -80.395737 -7.546459 -3.085560 16.018406 51.126778 8.360378 -0.389736 -21.146212 5.822482 20.603647 -23.980942 -5.819419 0.269925 122.961479 -1.306347 8.309527 5.810749 -17.226547 17.752277 
-0.307252 41.364124 -0.963345 1.031852 -6.414984 84.776909 0.000000 0.000000 0.000000 5.451297 -3.771975 5.479639 14.482653 -5.844835 -0.486838 -23.044483 2.236724 55.692589 -19.250656 18.989038 25.000000 -67.973007 -25.599466 -16.070826 -102.474007 -1.099365 18.326965 10.184916 -9.899416 -64.852051 0.599170 -13.490497 24.750690 64.875740 -31.568871 90.208687 38.116573 -49.189327 3.459295 16.403711 -1.619035 -80.400444 -0.453660 -4.105472 15.878650 41.561295 8.762597 0.167291 -18.735046 0.920395 19.015638 -29.600243 -6.355623 0.389312 116.210052 0.694262 8.571662 2.828225 -12.492439 16.325155 
